<svg version="1.1" id="Layer_1" xmlns="http://www.w3.org/2000/svg" xmlns:xlink="http://www.w3.org/1999/xlink" x="0px" y="0px"
	 width="100%" viewBox="0 0 200 200" enable-background="new 0 0 200 200" xml:space="preserve">
<path fill="#000000" opacity="1.000000" stroke="none" 
	d="
M131.000000,201.000000 
	C87.333336,201.000000 44.166672,201.000000 1.000006,201.000000 
	C1.000004,134.333344 1.000004,67.666679 1.000002,1.000015 
	C67.666656,1.000010 134.333313,1.000010 200.999969,1.000005 
	C200.999985,67.666649 200.999985,134.333298 201.000000,200.999969 
	C177.833328,201.000000 154.666672,201.000000 131.000000,201.000000 
M85.968208,70.802589 
	C84.736717,71.833847 83.655785,73.193680 82.247467,73.839020 
	C76.403618,76.516815 73.807587,79.484077 77.840973,86.711472 
	C78.263161,85.857399 78.979767,85.109810 78.883118,84.488792 
	C78.275749,80.586617 80.546295,79.283752 83.772957,78.591774 
	C85.509109,78.219444 87.192215,77.599808 88.941521,77.833977 
	C88.283241,79.322441 87.536034,80.778717 86.983383,82.305420 
	C85.337852,86.851204 88.159828,90.950592 92.870087,89.741455 
	C96.457321,88.820595 99.710678,85.994087 102.684456,83.504082 
	C104.622314,81.881462 105.638306,79.195244 107.421700,77.323128 
	C107.840424,76.883575 109.690979,77.807991 110.931923,78.715614 
	C111.246567,79.182335 111.561203,79.649055 112.204956,80.717857 
	C113.855614,83.143227 115.506271,85.568596 117.255043,88.595726 
	C117.826935,88.774559 118.398819,88.953392 119.441528,89.746902 
	C121.234932,89.746902 123.028336,89.746902 125.337387,89.746902 
	C124.596970,88.491386 124.416458,87.783272 124.108978,87.723015 
	C117.361244,86.400513 117.478325,80.517303 115.952950,75.679932 
	C115.636101,74.675117 114.776756,73.841370 114.128578,72.561813 
	C114.128578,72.561813 114.093216,72.194489 114.596718,71.834633 
	C116.030907,71.531120 117.465759,71.230675 118.899147,70.923424 
	C121.314285,70.405716 123.728500,69.883690 126.841850,69.212944 
	C125.045090,66.625252 124.136383,65.316528 123.162529,63.835278 
	C123.162529,63.835278 122.990082,63.769897 123.299652,63.185669 
	C122.935059,58.481525 118.623634,57.227406 113.401108,59.996147 
	C111.719513,60.887653 109.316643,61.695480 107.680939,61.172962 
	C101.043449,59.052677 94.815475,60.227818 88.400352,62.087597 
	C86.445984,62.654182 83.214882,62.278778 82.008575,60.988476 
	C80.806282,59.702461 80.437225,55.919930 81.458786,54.687588 
	C82.879036,52.974297 85.922508,51.906590 88.294861,51.863358 
	C91.130058,51.811684 93.953705,53.392780 96.848022,53.800282 
	C101.482124,54.452740 106.072037,54.344437 110.139664,50.149021 
	C108.804741,49.715172 107.384117,48.807636 106.903130,49.164951 
	C100.990623,53.557220 95.288605,51.023304 89.280174,49.344524 
	C86.248192,48.497379 82.534142,47.841026 79.817612,51.359180 
	C75.571198,56.858673 77.486336,62.879639 84.516953,65.480019 
	C84.989258,67.032837 85.447296,68.538750 85.968208,70.802589 
M117.457520,131.936371 
	C117.293755,131.133789 117.184906,130.315186 116.956215,129.531555 
	C116.187431,126.897141 115.812607,124.283585 111.988663,123.879807 
	C107.783333,123.435745 106.968315,125.995308 106.090614,128.930527 
	C104.315872,134.865662 102.544182,140.801727 100.771225,146.737411 
	C101.079849,147.065399 101.388466,147.393387 101.697090,147.721390 
	C103.137451,146.652695 104.603577,145.616669 106.010979,144.506195 
	C107.434059,143.383347 108.944496,141.095810 110.157974,141.257675 
	C112.434311,141.561340 115.694557,142.759995 116.439430,144.492126 
	C117.840477,147.750137 119.508904,147.091934 121.858978,146.525635 
	C120.491020,141.755524 119.183090,137.194687 117.457520,131.936371 
M48.754299,128.007645 
	C51.330433,127.182816 55.415520,130.006195 56.865891,123.999069 
	C53.015198,123.999069 49.774956,124.132896 46.550110,123.967148 
	C41.917145,123.729012 39.628532,125.626221 39.982079,130.405731 
	C40.092342,131.896332 39.998188,133.402023 39.998154,134.900818 
	C39.997841,148.347702 40.125011,148.460709 53.573441,146.982773 
	C53.738476,146.964630 53.954529,147.034500 54.064533,146.952698 
	C54.787086,146.415375 55.487007,145.847595 56.194317,145.289749 
	C56.043491,144.891800 55.892662,144.493835 55.741833,144.095886 
	C52.342758,144.095886 48.943680,144.095886 45.347275,144.095886 
	C45.347275,141.789688 45.347275,140.083084 45.347275,138.658356 
	C48.152889,136.825012 53.105282,140.117188 54.228523,133.839035 
	C50.717857,133.839035 47.975376,133.839035 45.232891,133.839035 
	C44.884941,133.359238 44.536991,132.879440 44.189041,132.399643 
	C45.420334,130.941757 46.651630,129.483887 48.754299,128.007645 
M125.015335,151.966446 
	C125.866364,153.083511 126.717392,154.200562 127.568428,155.317627 
	C127.968964,155.072067 128.369507,154.826492 128.770050,154.580933 
	C128.915573,152.012329 129.061111,149.443710 129.205994,146.886703 
	C131.311874,147.290375 133.148758,147.658035 134.991699,147.992340 
	C138.326385,148.597244 140.793167,147.246002 141.253265,143.974014 
	C141.664108,141.052231 141.561569,137.877197 140.813171,135.044388 
	C140.393997,133.457794 138.295731,131.346817 136.790955,131.205231 
	C133.003067,130.848831 129.122604,131.476151 125.000488,131.726044 
	C125.000488,138.144394 125.000488,144.600769 125.015335,151.966446 
M145.004623,140.312164 
	C146.276825,146.425095 149.567200,149.077194 154.883881,148.030792 
	C156.912415,147.631546 158.847839,146.759262 160.825699,146.102539 
	C158.712097,145.401138 156.642929,144.409805 154.472809,144.077225 
	C152.152267,143.721573 149.680344,144.050797 150.353424,140.014664 
	C152.762177,140.014664 155.089401,140.244553 157.342712,139.935501 
	C158.897552,139.722229 161.226471,139.099594 161.627792,138.053253 
	C162.135590,136.729218 161.471436,134.486588 160.552856,133.170563 
	C157.528748,128.838104 152.930664,130.784714 149.212112,131.436157 
	C145.330582,132.116150 145.028671,136.037354 145.004623,140.312164 
M60.277054,131.358704 
	C57.116394,138.460281 60.067303,139.218460 70.792770,142.546783 
	C68.296928,143.608093 66.804657,144.463333 65.198837,144.868088 
	C63.311497,145.343796 61.325592,145.428452 59.382435,145.682709 
	C59.425896,146.269592 59.469353,146.856476 59.512810,147.443359 
	C63.033691,147.443359 66.617271,147.832779 70.049187,147.280212 
	C71.783150,147.001007 73.242653,145.017136 74.826256,143.804031 
	C73.101959,141.884430 71.637100,139.589905 69.572899,138.161469 
	C67.860962,136.976822 65.442917,136.812546 63.337696,136.196213 
	C65.279175,134.649612 67.124855,134.384079 68.940453,133.982529 
	C70.630997,133.608658 72.289520,133.089981 73.962135,132.635056 
	C73.822533,132.118637 73.682922,131.602234 73.543320,131.085831 
	C69.399025,131.085831 65.254738,131.085831 60.277054,131.358704 
M89.143944,130.518600 
	C87.016235,130.679260 84.598160,130.261719 82.834549,131.147415 
	C80.646194,132.246399 77.615723,134.238281 77.356544,136.167877 
	C76.182144,144.911453 81.662880,149.570923 90.359329,147.814575 
	C91.256157,147.633438 91.979576,146.593674 92.783463,145.952316 
	C91.950790,145.312012 91.202034,144.442566 90.261055,144.098007 
	C89.378403,143.774780 88.198486,144.263214 87.315903,143.939911 
	C85.584122,143.305557 83.163124,142.743439 82.528549,141.427505 
	C81.882812,140.088440 82.435760,137.144135 83.553436,136.218704 
	C85.301292,134.771500 87.966621,134.432358 91.288170,133.252716 
	C91.082924,132.855591 90.493156,131.714447 89.143944,130.518600 
M142.871704,67.747139 
	C141.845291,63.152580 140.818878,58.558022 139.792465,53.963463 
	C139.527725,54.029362 139.263000,54.095261 138.998260,54.161156 
	C138.998260,64.393135 138.998260,74.625122 138.998260,84.857101 
	C139.341995,84.918320 139.685715,84.979546 140.029449,85.040764 
	C141.006470,79.568283 141.983475,74.095810 142.871704,67.747139 
M63.603371,82.171661 
	C60.594070,73.031334 61.971512,63.766815 63.302418,54.503613 
	C58.200390,62.458015 58.091999,75.095276 62.863708,84.199638 
	C63.079533,83.786705 63.307537,83.350479 63.603371,82.171661 
M92.395401,28.884884 
	C89.893227,29.368883 87.391060,29.852882 84.888885,30.336882 
	C84.974091,30.559185 85.059296,30.781488 85.144501,31.003792 
	C95.377495,31.003792 105.610497,31.003792 116.468399,31.003792 
	C108.670815,26.862375 100.883591,27.899508 92.395401,28.884884 
M106.820595,108.009369 
	C104.344353,108.264679 101.866898,108.730484 99.392197,108.716316 
	C96.898323,108.702049 94.372932,108.378860 91.924942,107.879356 
	C89.698837,107.425133 87.558151,106.552261 85.379814,105.863930 
	C85.293678,106.419266 85.207542,106.974602 85.121414,107.529945 
	C95.506454,111.303627 105.949059,111.976303 116.484802,107.631210 
	C116.400803,107.185471 116.316803,106.739731 116.232803,106.293991 
	C113.358490,106.870331 110.484184,107.446671 106.820595,108.009369 
z"/>
<path fill="#33C324" opacity="1.000000" stroke="none" 
	d="
M123.227676,64.007812 
	C124.136383,65.316528 125.045090,66.625252 126.841850,69.212944 
	C123.728500,69.883690 121.314285,70.405716 118.899147,70.923424 
	C117.465759,71.230675 116.030907,71.531120 114.233917,72.114105 
	C113.757729,72.651077 113.644348,72.908585 113.530960,73.166092 
	C113.743118,73.086983 113.955269,73.007881 114.167427,72.928787 
	C114.776756,73.841370 115.636101,74.675117 115.952950,75.679932 
	C117.478325,80.517303 117.361244,86.400513 124.108978,87.723015 
	C124.416458,87.783272 124.596970,88.491386 125.337387,89.746902 
	C123.028336,89.746902 121.234932,89.746902 118.998360,89.268677 
	C118.089104,88.524956 117.623016,88.259460 117.156937,87.993973 
	C115.506271,85.568596 113.855614,83.143227 111.962563,80.145134 
	C111.441048,79.083244 111.161934,78.594070 110.882812,78.104904 
	C109.690979,77.807991 107.840424,76.883575 107.421700,77.323128 
	C105.638306,79.195244 104.622314,81.881462 102.684456,83.504082 
	C99.710678,85.994087 96.457321,88.820595 92.870087,89.741455 
	C88.159828,90.950592 85.337852,86.851204 86.983383,82.305420 
	C87.536034,80.778717 88.283241,79.322441 89.037704,77.188202 
	C88.057709,74.376511 86.981522,72.210587 85.905334,70.044662 
	C85.447296,68.538750 84.989258,67.032837 84.516953,65.480019 
	C77.486336,62.879639 75.571198,56.858673 79.817612,51.359180 
	C82.534142,47.841026 86.248192,48.497379 89.280174,49.344524 
	C95.288605,51.023304 100.990623,53.557220 106.903130,49.164951 
	C107.384117,48.807636 108.804741,49.715172 110.139664,50.149021 
	C106.072037,54.344437 101.482124,54.452740 96.848022,53.800282 
	C93.953705,53.392780 91.130058,51.811684 88.294861,51.863358 
	C85.922508,51.906590 82.879036,52.974297 81.458786,54.687588 
	C80.437225,55.919930 80.806282,59.702461 82.008575,60.988476 
	C83.214882,62.278778 86.445984,62.654182 88.400352,62.087597 
	C94.815475,60.227818 101.043449,59.052677 107.680939,61.172962 
	C109.316643,61.695480 111.719513,60.887653 113.401108,59.996147 
	C118.623634,57.227406 122.935059,58.481525 123.062500,63.561584 
	C122.825348,63.937504 122.870972,64.282990 122.870972,64.282990 
	C122.870972,64.282990 123.227676,64.007812 123.227676,64.007812 
M98.904663,83.169212 
	C99.869057,80.080994 100.833450,76.992767 101.838631,73.773926 
	C99.467911,72.499557 97.100227,71.226830 93.261345,69.163254 
	C96.707863,76.341179 92.928123,80.670769 90.002365,85.049179 
	C94.057121,91.159531 96.115273,86.354813 98.904663,83.169212 
M121.493637,62.580261 
	C121.493637,62.580261 121.456650,62.506535 121.493637,62.580261 
z"/>
<path fill="#2FBF20" opacity="1.000000" stroke="none" 
	d="
M117.666336,132.285126 
	C119.183090,137.194687 120.491020,141.755524 121.858978,146.525635 
	C119.508904,147.091934 117.840477,147.750137 116.439430,144.492126 
	C115.694557,142.759995 112.434311,141.561340 110.157974,141.257675 
	C108.944496,141.095810 107.434059,143.383347 106.010979,144.506195 
	C104.603577,145.616669 103.137451,146.652695 101.697090,147.721390 
	C101.388466,147.393387 101.079849,147.065399 100.771225,146.737411 
	C102.544182,140.801727 104.315872,134.865662 106.090614,128.930527 
	C106.968315,125.995308 107.783333,123.435745 111.988663,123.879807 
	C115.812607,124.283585 116.187431,126.897141 116.956215,129.531555 
	C117.184906,130.315186 117.293755,131.133789 117.666336,132.285126 
M109.975235,130.677261 
	C109.373749,132.961929 108.772263,135.246597 108.136803,137.660309 
	C110.605331,137.660309 112.646721,137.660309 114.666306,137.660309 
	C113.884972,134.885437 113.220940,132.410477 112.486954,129.956451 
	C111.873955,127.906944 111.837677,127.917793 109.975235,130.677261 
z"/>
<path fill="#2EC11F" opacity="1.000000" stroke="none" 
	d="
M48.318611,128.016815 
	C46.651630,129.483887 45.420334,130.941757 44.189041,132.399643 
	C44.536991,132.879440 44.884941,133.359238 45.232891,133.839035 
	C47.975376,133.839035 50.717857,133.839035 54.228523,133.839035 
	C53.105282,140.117188 48.152889,136.825012 45.347275,138.658356 
	C45.347275,140.083084 45.347275,141.789688 45.347275,144.095886 
	C48.943680,144.095886 52.342758,144.095886 55.741833,144.095886 
	C55.892662,144.493835 56.043491,144.891800 56.194317,145.289749 
	C55.487007,145.847595 54.787086,146.415375 54.064533,146.952698 
	C53.954529,147.034500 53.738476,146.964630 53.573441,146.982773 
	C40.125011,148.460709 39.997841,148.347702 39.998154,134.900818 
	C39.998188,133.402023 40.092342,131.896332 39.982079,130.405731 
	C39.628532,125.626221 41.917145,123.729012 46.550110,123.967148 
	C49.774956,124.132896 53.015198,123.999069 56.865891,123.999069 
	C55.415520,130.006195 51.330433,127.182816 48.318611,128.016815 
z"/>
<path fill="#2FC020" opacity="1.000000" stroke="none" 
	d="
M125.007912,151.511795 
	C125.000488,144.600769 125.000488,138.144394 125.000488,131.726044 
	C129.122604,131.476151 133.003067,130.848831 136.790955,131.205231 
	C138.295731,131.346817 140.393997,133.457794 140.813171,135.044388 
	C141.561569,137.877197 141.664108,141.052231 141.253265,143.974014 
	C140.793167,147.246002 138.326385,148.597244 134.991699,147.992340 
	C133.148758,147.658035 131.311874,147.290375 129.205994,146.886703 
	C129.061111,149.443710 128.915573,152.012329 128.770050,154.580933 
	C128.369507,154.826492 127.968964,155.072067 127.568428,155.317627 
	C126.717392,154.200562 125.866364,153.083511 125.007912,151.511795 
M129.453476,143.712173 
	C131.556488,143.805588 135.251755,144.501038 135.483887,143.887100 
	C136.433487,141.375595 136.500580,138.461533 136.455460,135.702850 
	C136.446793,135.172195 134.410782,134.137741 133.411591,134.248856 
	C127.645248,134.890182 129.060944,139.297409 129.453476,143.712173 
z"/>
<path fill="#2EC21E" opacity="1.000000" stroke="none" 
	d="
M145.003204,139.893372 
	C145.028671,136.037354 145.330582,132.116150 149.212112,131.436157 
	C152.930664,130.784714 157.528748,128.838104 160.552856,133.170563 
	C161.471436,134.486588 162.135590,136.729218 161.627792,138.053253 
	C161.226471,139.099594 158.897552,139.722229 157.342712,139.935501 
	C155.089401,140.244553 152.762177,140.014664 150.353424,140.014664 
	C149.680344,144.050797 152.152267,143.721573 154.472809,144.077225 
	C156.642929,144.409805 158.712097,145.401138 160.825699,146.102539 
	C158.847839,146.759262 156.912415,147.631546 154.883881,148.030792 
	C149.567200,149.077194 146.276825,146.425095 145.003204,139.893372 
z"/>
<path fill="#2EC21E" opacity="1.000000" stroke="none" 
	d="
M60.693748,131.222260 
	C65.254738,131.085831 69.399025,131.085831 73.543320,131.085831 
	C73.682922,131.602234 73.822533,132.118637 73.962135,132.635056 
	C72.289520,133.089981 70.630997,133.608658 68.940453,133.982529 
	C67.124855,134.384079 65.279175,134.649612 63.337696,136.196213 
	C65.442917,136.812546 67.860962,136.976822 69.572899,138.161469 
	C71.637100,139.589905 73.101959,141.884430 74.826256,143.804031 
	C73.242653,145.017136 71.783150,147.001007 70.049187,147.280212 
	C66.617271,147.832779 63.033691,147.443359 59.512810,147.443359 
	C59.469353,146.856476 59.425896,146.269592 59.382435,145.682709 
	C61.325592,145.428452 63.311497,145.343796 65.198837,144.868088 
	C66.804657,144.463333 68.296928,143.608093 70.792770,142.546783 
	C60.067303,139.218460 57.116394,138.460281 60.693748,131.222260 
z"/>
<path fill="#2EC01F" opacity="1.000000" stroke="none" 
	d="
M89.523666,130.545944 
	C90.493156,131.714447 91.082924,132.855591 91.288170,133.252716 
	C87.966621,134.432358 85.301292,134.771500 83.553436,136.218704 
	C82.435760,137.144135 81.882812,140.088440 82.528549,141.427505 
	C83.163124,142.743439 85.584122,143.305557 87.315903,143.939911 
	C88.198486,144.263214 89.378403,143.774780 90.261055,144.098007 
	C91.202034,144.442566 91.950790,145.312012 92.783463,145.952316 
	C91.979576,146.593674 91.256157,147.633438 90.359329,147.814575 
	C81.662880,149.570923 76.182144,144.911453 77.356544,136.167877 
	C77.615723,134.238281 80.646194,132.246399 82.834549,131.147415 
	C84.598160,130.261719 87.016235,130.679260 89.523666,130.545944 
z"/>
<path fill="#39C52A" opacity="1.000000" stroke="none" 
	d="
M85.936768,70.423630 
	C86.981522,72.210587 88.057709,74.376511 89.016571,76.817093 
	C87.192215,77.599808 85.509109,78.219444 83.772957,78.591774 
	C80.546295,79.283752 78.275749,80.586617 78.883118,84.488792 
	C78.979767,85.109810 78.263161,85.857399 77.840973,86.711472 
	C73.807587,79.484077 76.403618,76.516815 82.247467,73.839020 
	C83.655785,73.193680 84.736717,71.833847 85.936768,70.423630 
z"/>
<path fill="#4FCA41" opacity="1.000000" stroke="none" 
	d="
M142.916107,68.185234 
	C141.983475,74.095810 141.006470,79.568283 140.029449,85.040764 
	C139.685715,84.979546 139.341995,84.918320 138.998260,84.857101 
	C138.998260,74.625122 138.998260,64.393135 138.998260,54.161156 
	C139.263000,54.095261 139.527725,54.029362 139.792465,53.963463 
	C140.818878,58.558022 141.845291,63.152580 142.916107,68.185234 
z"/>
<path fill="#4FCA41" opacity="1.000000" stroke="none" 
	d="
M63.569454,82.542953 
	C63.307537,83.350479 63.079533,83.786705 62.863708,84.199638 
	C58.091999,75.095276 58.200390,62.458015 63.302418,54.503613 
	C61.971512,63.766815 60.594070,73.031334 63.569454,82.542953 
z"/>
<path fill="#4FCA41" opacity="1.000000" stroke="none" 
	d="
M92.777054,28.644936 
	C100.883591,27.899508 108.670815,26.862375 116.468399,31.003792 
	C105.610497,31.003792 95.377495,31.003792 85.144501,31.003792 
	C85.059296,30.781488 84.974091,30.559185 84.888885,30.336882 
	C87.391060,29.852882 89.893227,29.368883 92.777054,28.644936 
z"/>
<path fill="#4FCA41" opacity="1.000000" stroke="none" 
	d="
M107.215233,108.016190 
	C110.484184,107.446671 113.358490,106.870331 116.232803,106.293991 
	C116.316803,106.739731 116.400803,107.185471 116.484802,107.631210 
	C105.949059,111.976303 95.506454,111.303627 85.121414,107.529945 
	C85.207542,106.974602 85.293678,106.419266 85.379814,105.863930 
	C87.558151,106.552261 89.698837,107.425133 91.924942,107.879356 
	C94.372932,108.378860 96.898323,108.702049 99.392197,108.716316 
	C101.866898,108.730484 104.344353,108.264679 107.215233,108.016190 
z"/>
<path fill="#35C426" opacity="1.000000" stroke="none" 
	d="
M114.148003,72.745300 
	C113.955269,73.007881 113.743118,73.086983 113.530960,73.166092 
	C113.644348,72.908585 113.757729,72.651077 113.982162,72.294037 
	C114.093216,72.194489 114.128578,72.561813 114.148003,72.745300 
z"/>
<path fill="#35C426" opacity="1.000000" stroke="none" 
	d="
M117.205994,88.294846 
	C117.623016,88.259460 118.089104,88.524956 118.762955,88.961342 
	C118.398819,88.953392 117.826935,88.774559 117.205994,88.294846 
z"/>
<path fill="#35C426" opacity="1.000000" stroke="none" 
	d="
M110.907364,78.410263 
	C111.161934,78.594070 111.441048,79.083244 111.798004,79.844093 
	C111.561203,79.649055 111.246567,79.182335 110.907364,78.410263 
z"/>
<path fill="#000000" opacity="1.000000" stroke="none" 
	d="
M98.736954,83.518585 
	C96.115273,86.354813 94.057121,91.159531 90.002365,85.049179 
	C92.928123,80.670769 96.707863,76.341179 93.261345,69.163254 
	C97.100227,71.226830 99.467911,72.499557 101.838631,73.773926 
	C100.833450,76.992767 99.869057,80.080994 98.736954,83.518585 
z"/>
<path fill="#4FCA41" opacity="1.000000" stroke="none" 
	d="
M123.195099,63.921547 
	C123.227676,64.007812 122.870972,64.282990 122.870972,64.282990 
	C122.870972,64.282990 122.825348,63.937504 122.907715,63.853699 
	C122.990082,63.769897 123.162529,63.835278 123.195099,63.921547 
z"/>
<path fill="#4FCA41" opacity="1.000000" stroke="none" 
	d="
M121.475143,62.543396 
	C121.456650,62.506535 121.493637,62.580261 121.475143,62.543396 
z"/>
<path fill="#000000" opacity="1.000000" stroke="none" 
	d="
M109.994339,130.298782 
	C111.837677,127.917793 111.873955,127.906944 112.486954,129.956451 
	C113.220940,132.410477 113.884972,134.885437 114.666306,137.660309 
	C112.646721,137.660309 110.605331,137.660309 108.136803,137.660309 
	C108.772263,135.246597 109.373749,132.961929 109.994339,130.298782 
z"/>
<path fill="#020202" opacity="1.000000" stroke="none" 
	d="
M129.281921,143.330963 
	C129.060944,139.297409 127.645248,134.890182 133.411591,134.248856 
	C134.410782,134.137741 136.446793,135.172195 136.455460,135.702850 
	C136.500580,138.461533 136.433487,141.375595 135.483887,143.887100 
	C135.251755,144.501038 131.556488,143.805588 129.281921,143.330963 
z"/>
</svg>