<?xml version="1.0" encoding="UTF-8" standalone="no"?>
<svg
   version="1.1"
   id="Layer_1"
   x="0px"
   y="0px"
   width="100%"
   viewBox="0 0 200 200"
   enable-background="new 0 0 200 200"
   xml:space="preserve"
   sodipodi:docname="favicon.svg"
   inkscape:version="1.2.2 (b0a8486541, 2022-12-01)"
   xmlns:inkscape="http://www.inkscape.org/namespaces/inkscape"
   xmlns:sodipodi="http://sodipodi.sourceforge.net/DTD/sodipodi-0.dtd"
   xmlns="http://www.w3.org/2000/svg"
   xmlns:svg="http://www.w3.org/2000/svg"><defs
   id="defs47" /><sodipodi:namedview
   id="namedview45"
   pagecolor="#ffffff"
   bordercolor="#000000"
   borderopacity="0.25"
   inkscape:showpageshadow="2"
   inkscape:pageopacity="0.0"
   inkscape:pagecheckerboard="0"
   inkscape:deskcolor="#d1d1d1"
   showgrid="false"
   inkscape:zoom="3.325"
   inkscape:cx="99.849624"
   inkscape:cy="99.849624"
   inkscape:window-width="1706"
   inkscape:window-height="879"
   inkscape:window-x="0"
   inkscape:window-y="0"
   inkscape:window-maximized="1"
   inkscape:current-layer="Layer_1" />
<path
   fill="#000000"
   opacity="1.000000"
   stroke="none"
   d=" M131.000000,201.000000   C87.333336,201.000000 44.166672,201.000000 1.000006,201.000000   C1.000004,134.333344 1.000004,67.666679 1.000002,1.000015   C67.666656,1.000010 134.333313,1.000010 200.999969,1.000005   C200.999985,67.666649 200.999985,134.333298 201.000000,200.999969   C177.833328,201.000000 154.666672,201.000000 131.000000,201.000000  M85.968208,70.802589   C84.736717,71.833847 83.655785,73.193680 82.247467,73.839020   C76.403618,76.516815 73.807587,79.484077 77.840973,86.711472   C78.263161,85.857399 78.979767,85.109810 78.883118,84.488792   C78.275749,80.586617 80.546295,79.283752 83.772957,78.591774   C85.509109,78.219444 87.192215,77.599808 88.941521,77.833977   C88.283241,79.322441 87.536034,80.778717 86.983383,82.305420   C85.337852,86.851204 88.159828,90.950592 92.870087,89.741455   C96.457321,88.820595 99.710678,85.994087 102.684456,83.504082   C104.622314,81.881462 105.638306,79.195244 107.421700,77.323128   C107.840424,76.883575 109.690979,77.807991 110.931923,78.715614   C111.246567,79.182335 111.561203,79.649055 112.204956,80.717857   C113.855614,83.143227 115.506271,85.568596 117.255043,88.595726   C117.826935,88.774559 118.398819,88.953392 119.441528,89.746902   C121.234932,89.746902 123.028336,89.746902 125.337387,89.746902   C124.596970,88.491386 124.416458,87.783272 124.108978,87.723015   C117.361244,86.400513 117.478325,80.517303 115.952950,75.679932   C115.636101,74.675117 114.776756,73.841370 114.128578,72.561813   C114.128578,72.561813 114.093216,72.194489 114.596718,71.834633   C116.030907,71.531120 117.465759,71.230675 118.899147,70.923424   C121.314285,70.405716 123.728500,69.883690 126.841850,69.212944   C125.045090,66.625252 124.136383,65.316528 123.162529,63.835278   C123.162529,63.835278 122.990082,63.769897 123.299652,63.185669   C122.935059,58.481525 118.623634,57.227406 113.401108,59.996147   C111.719513,60.887653 109.316643,61.695480 107.680939,61.172962   C101.043449,59.052677 94.815475,60.227818 88.400352,62.087597   C86.445984,62.654182 83.214882,62.278778 82.008575,60.988476   C80.806282,59.702461 80.437225,55.919930 81.458786,54.687588   C82.879036,52.974297 85.922508,51.906590 88.294861,51.863358   C91.130058,51.811684 93.953705,53.392780 96.848022,53.800282   C101.482124,54.452740 106.072037,54.344437 110.139664,50.149021   C108.804741,49.715172 107.384117,48.807636 106.903130,49.164951   C100.990623,53.557220 95.288605,51.023304 89.280174,49.344524   C86.248192,48.497379 82.534142,47.841026 79.817612,51.359180   C75.571198,56.858673 77.486336,62.879639 84.516953,65.480019   C84.989258,67.032837 85.447296,68.538750 85.968208,70.802589  M117.457520,131.936371   C117.293755,131.133789 117.184906,130.315186 116.956215,129.531555   C116.187431,126.897141 115.812607,124.283585 111.988663,123.879807   C107.783333,123.435745 106.968315,125.995308 106.090614,128.930527   C104.315872,134.865662 102.544182,140.801727 100.771225,146.737411   C101.079849,147.065399 101.388466,147.393387 101.697090,147.721390   C103.137451,146.652695 104.603577,145.616669 106.010979,144.506195   C107.434059,143.383347 108.944496,141.095810 110.157974,141.257675   C112.434311,141.561340 115.694557,142.759995 116.439430,144.492126   C117.840477,147.750137 119.508904,147.091934 121.858978,146.525635   C120.491020,141.755524 119.183090,137.194687 117.457520,131.936371  M48.754299,128.007645   C51.330433,127.182816 55.415520,130.006195 56.865891,123.999069   C53.015198,123.999069 49.774956,124.132896 46.550110,123.967148   C41.917145,123.729012 39.628532,125.626221 39.982079,130.405731   C40.092342,131.896332 39.998188,133.402023 39.998154,134.900818   C39.997841,148.347702 40.125011,148.460709 53.573441,146.982773   C53.738476,146.964630 53.954529,147.034500 54.064533,146.952698   C54.787086,146.415375 55.487007,145.847595 56.194317,145.289749   C56.043491,144.891800 55.892662,144.493835 55.741833,144.095886   C52.342758,144.095886 48.943680,144.095886 45.347275,144.095886   C45.347275,141.789688 45.347275,140.083084 45.347275,138.658356   C48.152889,136.825012 53.105282,140.117188 54.228523,133.839035   C50.717857,133.839035 47.975376,133.839035 45.232891,133.839035   C44.884941,133.359238 44.536991,132.879440 44.189041,132.399643   C45.420334,130.941757 46.651630,129.483887 48.754299,128.007645  M125.015335,151.966446   C125.866364,153.083511 126.717392,154.200562 127.568428,155.317627   C127.968964,155.072067 128.369507,154.826492 128.770050,154.580933   C128.915573,152.012329 129.061111,149.443710 129.205994,146.886703   C131.311874,147.290375 133.148758,147.658035 134.991699,147.992340   C138.326385,148.597244 140.793167,147.246002 141.253265,143.974014   C141.664108,141.052231 141.561569,137.877197 140.813171,135.044388   C140.393997,133.457794 138.295731,131.346817 136.790955,131.205231   C133.003067,130.848831 129.122604,131.476151 125.000488,131.726044   C125.000488,138.144394 125.000488,144.600769 125.015335,151.966446  M145.004623,140.312164   C146.276825,146.425095 149.567200,149.077194 154.883881,148.030792   C156.912415,147.631546 158.847839,146.759262 160.825699,146.102539   C158.712097,145.401138 156.642929,144.409805 154.472809,144.077225   C152.152267,143.721573 149.680344,144.050797 150.353424,140.014664   C152.762177,140.014664 155.089401,140.244553 157.342712,139.935501   C158.897552,139.722229 161.226471,139.099594 161.627792,138.053253   C162.135590,136.729218 161.471436,134.486588 160.552856,133.170563   C157.528748,128.838104 152.930664,130.784714 149.212112,131.436157   C145.330582,132.116150 145.028671,136.037354 145.004623,140.312164  M60.277054,131.358704   C57.116394,138.460281 60.067303,139.218460 70.792770,142.546783   C68.296928,143.608093 66.804657,144.463333 65.198837,144.868088   C63.311497,145.343796 61.325592,145.428452 59.382435,145.682709   C59.425896,146.269592 59.469353,146.856476 59.512810,147.443359   C63.033691,147.443359 66.617271,147.832779 70.049187,147.280212   C71.783150,147.001007 73.242653,145.017136 74.826256,143.804031   C73.101959,141.884430 71.637100,139.589905 69.572899,138.161469   C67.860962,136.976822 65.442917,136.812546 63.337696,136.196213   C65.279175,134.649612 67.124855,134.384079 68.940453,133.982529   C70.630997,133.608658 72.289520,133.089981 73.962135,132.635056   C73.822533,132.118637 73.682922,131.602234 73.543320,131.085831   C69.399025,131.085831 65.254738,131.085831 60.277054,131.358704  M89.143944,130.518600   C87.016235,130.679260 84.598160,130.261719 82.834549,131.147415   C80.646194,132.246399 77.615723,134.238281 77.356544,136.167877   C76.182144,144.911453 81.662880,149.570923 90.359329,147.814575   C91.256157,147.633438 91.979576,146.593674 92.783463,145.952316   C91.950790,145.312012 91.202034,144.442566 90.261055,144.098007   C89.378403,143.774780 88.198486,144.263214 87.315903,143.939911   C85.584122,143.305557 83.163124,142.743439 82.528549,141.427505   C81.882812,140.088440 82.435760,137.144135 83.553436,136.218704   C85.301292,134.771500 87.966621,134.432358 91.288170,133.252716   C91.082924,132.855591 90.493156,131.714447 89.143944,130.518600  M142.871704,67.747139   C141.845291,63.152580 140.818878,58.558022 139.792465,53.963463   C139.527725,54.029362 139.263000,54.095261 138.998260,54.161156   C138.998260,64.393135 138.998260,74.625122 138.998260,84.857101   C139.341995,84.918320 139.685715,84.979546 140.029449,85.040764   C141.006470,79.568283 141.983475,74.095810 142.871704,67.747139  M63.603371,82.171661   C60.594070,73.031334 61.971512,63.766815 63.302418,54.503613   C58.200390,62.458015 58.091999,75.095276 62.863708,84.199638   C63.079533,83.786705 63.307537,83.350479 63.603371,82.171661  M92.395401,28.884884   C89.893227,29.368883 87.391060,29.852882 84.888885,30.336882   C84.974091,30.559185 85.059296,30.781488 85.144501,31.003792   C95.377495,31.003792 105.610497,31.003792 116.468399,31.003792   C108.670815,26.862375 100.883591,27.899508 92.395401,28.884884  M106.820595,108.009369   C104.344353,108.264679 101.866898,108.730484 99.392197,108.716316   C96.898323,108.702049 94.372932,108.378860 91.924942,107.879356   C89.698837,107.425133 87.558151,106.552261 85.379814,105.863930   C85.293678,106.419266 85.207542,106.974602 85.121414,107.529945   C95.506454,111.303627 105.949059,111.976303 116.484802,107.631210   C116.400803,107.185471 116.316803,106.739731 116.232803,106.293991   C113.358490,106.870331 110.484184,107.446671 106.820595,108.009369  z"
   id="path2" />
<path
   fill="#33C324"
   opacity="1.000000"
   stroke="none"
   d=" M123.227676,64.007812   C124.136383,65.316528 125.045090,66.625252 126.841850,69.212944   C123.728500,69.883690 121.314285,70.405716 118.899147,70.923424   C117.465759,71.230675 116.030907,71.531120 114.233917,72.114105   C113.757729,72.651077 113.644348,72.908585 113.530960,73.166092   C113.743118,73.086983 113.955269,73.007881 114.167427,72.928787   C114.776756,73.841370 115.636101,74.675117 115.952950,75.679932   C117.478325,80.517303 117.361244,86.400513 124.108978,87.723015   C124.416458,87.783272 124.596970,88.491386 125.337387,89.746902   C123.028336,89.746902 121.234932,89.746902 118.998360,89.268677   C118.089104,88.524956 117.623016,88.259460 117.156937,87.993973   C115.506271,85.568596 113.855614,83.143227 111.962563,80.145134   C111.441048,79.083244 111.161934,78.594070 110.882812,78.104904   C109.690979,77.807991 107.840424,76.883575 107.421700,77.323128   C105.638306,79.195244 104.622314,81.881462 102.684456,83.504082   C99.710678,85.994087 96.457321,88.820595 92.870087,89.741455   C88.159828,90.950592 85.337852,86.851204 86.983383,82.305420   C87.536034,80.778717 88.283241,79.322441 89.037704,77.188202   C88.057709,74.376511 86.981522,72.210587 85.905334,70.044662   C85.447296,68.538750 84.989258,67.032837 84.516953,65.480019   C77.486336,62.879639 75.571198,56.858673 79.817612,51.359180   C82.534142,47.841026 86.248192,48.497379 89.280174,49.344524   C95.288605,51.023304 100.990623,53.557220 106.903130,49.164951   C107.384117,48.807636 108.804741,49.715172 110.139664,50.149021   C106.072037,54.344437 101.482124,54.452740 96.848022,53.800282   C93.953705,53.392780 91.130058,51.811684 88.294861,51.863358   C85.922508,51.906590 82.879036,52.974297 81.458786,54.687588   C80.437225,55.919930 80.806282,59.702461 82.008575,60.988476   C83.214882,62.278778 86.445984,62.654182 88.400352,62.087597   C94.815475,60.227818 101.043449,59.052677 107.680939,61.172962   C109.316643,61.695480 111.719513,60.887653 113.401108,59.996147   C118.623634,57.227406 122.935059,58.481525 123.062500,63.561584   C122.825348,63.937504 122.870972,64.282990 122.870972,64.282990   C122.870972,64.282990 123.227676,64.007812 123.227676,64.007812  M98.904663,83.169212   C99.869057,80.080994 100.833450,76.992767 101.838631,73.773926   C99.467911,72.499557 97.100227,71.226830 93.261345,69.163254   C96.707863,76.341179 92.928123,80.670769 90.002365,85.049179   C94.057121,91.159531 96.115273,86.354813 98.904663,83.169212  M121.493637,62.580261   C121.493637,62.580261 121.456650,62.506535 121.493637,62.580261  z"
   id="path4" />
<path
   fill="#2FBF20"
   opacity="1.000000"
   stroke="none"
   d=" M117.666336,132.285126   C119.183090,137.194687 120.491020,141.755524 121.858978,146.525635   C119.508904,147.091934 117.840477,147.750137 116.439430,144.492126   C115.694557,142.759995 112.434311,141.561340 110.157974,141.257675   C108.944496,141.095810 107.434059,143.383347 106.010979,144.506195   C104.603577,145.616669 103.137451,146.652695 101.697090,147.721390   C101.388466,147.393387 101.079849,147.065399 100.771225,146.737411   C102.544182,140.801727 104.315872,134.865662 106.090614,128.930527   C106.968315,125.995308 107.783333,123.435745 111.988663,123.879807   C115.812607,124.283585 116.187431,126.897141 116.956215,129.531555   C117.184906,130.315186 117.293755,131.133789 117.666336,132.285126  M109.975235,130.677261   C109.373749,132.961929 108.772263,135.246597 108.136803,137.660309   C110.605331,137.660309 112.646721,137.660309 114.666306,137.660309   C113.884972,134.885437 113.220940,132.410477 112.486954,129.956451   C111.873955,127.906944 111.837677,127.917793 109.975235,130.677261  z"
   id="path6" />
<path
   fill="#2EC11F"
   opacity="1.000000"
   stroke="none"
   d=" M48.318611,128.016815   C46.651630,129.483887 45.420334,130.941757 44.189041,132.399643   C44.536991,132.879440 44.884941,133.359238 45.232891,133.839035   C47.975376,133.839035 50.717857,133.839035 54.228523,133.839035   C53.105282,140.117188 48.152889,136.825012 45.347275,138.658356   C45.347275,140.083084 45.347275,141.789688 45.347275,144.095886   C48.943680,144.095886 52.342758,144.095886 55.741833,144.095886   C55.892662,144.493835 56.043491,144.891800 56.194317,145.289749   C55.487007,145.847595 54.787086,146.415375 54.064533,146.952698   C53.954529,147.034500 53.738476,146.964630 53.573441,146.982773   C40.125011,148.460709 39.997841,148.347702 39.998154,134.900818   C39.998188,133.402023 40.092342,131.896332 39.982079,130.405731   C39.628532,125.626221 41.917145,123.729012 46.550110,123.967148   C49.774956,124.132896 53.015198,123.999069 56.865891,123.999069   C55.415520,130.006195 51.330433,127.182816 48.318611,128.016815  z"
   id="path8" />
<path
   fill="#2FC020"
   opacity="1.000000"
   stroke="none"
   d=" M125.007912,151.511795   C125.000488,144.600769 125.000488,138.144394 125.000488,131.726044   C129.122604,131.476151 133.003067,130.848831 136.790955,131.205231   C138.295731,131.346817 140.393997,133.457794 140.813171,135.044388   C141.561569,137.877197 141.664108,141.052231 141.253265,143.974014   C140.793167,147.246002 138.326385,148.597244 134.991699,147.992340   C133.148758,147.658035 131.311874,147.290375 129.205994,146.886703   C129.061111,149.443710 128.915573,152.012329 128.770050,154.580933   C128.369507,154.826492 127.968964,155.072067 127.568428,155.317627   C126.717392,154.200562 125.866364,153.083511 125.007912,151.511795  M129.453476,143.712173   C131.556488,143.805588 135.251755,144.501038 135.483887,143.887100   C136.433487,141.375595 136.500580,138.461533 136.455460,135.702850   C136.446793,135.172195 134.410782,134.137741 133.411591,134.248856   C127.645248,134.890182 129.060944,139.297409 129.453476,143.712173  z"
   id="path10" />
<path
   fill="#2EC21E"
   opacity="1.000000"
   stroke="none"
   d=" M145.003204,139.893372   C145.028671,136.037354 145.330582,132.116150 149.212112,131.436157   C152.930664,130.784714 157.528748,128.838104 160.552856,133.170563   C161.471436,134.486588 162.135590,136.729218 161.627792,138.053253   C161.226471,139.099594 158.897552,139.722229 157.342712,139.935501   C155.089401,140.244553 152.762177,140.014664 150.353424,140.014664   C149.680344,144.050797 152.152267,143.721573 154.472809,144.077225   C156.642929,144.409805 158.712097,145.401138 160.825699,146.102539   C158.847839,146.759262 156.912415,147.631546 154.883881,148.030792   C149.567200,149.077194 146.276825,146.425095 145.003204,139.893372  z"
   id="path12" />
<path
   fill="#2EC21E"
   opacity="1.000000"
   stroke="none"
   d=" M60.693748,131.222260   C65.254738,131.085831 69.399025,131.085831 73.543320,131.085831   C73.682922,131.602234 73.822533,132.118637 73.962135,132.635056   C72.289520,133.089981 70.630997,133.608658 68.940453,133.982529   C67.124855,134.384079 65.279175,134.649612 63.337696,136.196213   C65.442917,136.812546 67.860962,136.976822 69.572899,138.161469   C71.637100,139.589905 73.101959,141.884430 74.826256,143.804031   C73.242653,145.017136 71.783150,147.001007 70.049187,147.280212   C66.617271,147.832779 63.033691,147.443359 59.512810,147.443359   C59.469353,146.856476 59.425896,146.269592 59.382435,145.682709   C61.325592,145.428452 63.311497,145.343796 65.198837,144.868088   C66.804657,144.463333 68.296928,143.608093 70.792770,142.546783   C60.067303,139.218460 57.116394,138.460281 60.693748,131.222260  z"
   id="path14" />
<path
   fill="#2EC01F"
   opacity="1.000000"
   stroke="none"
   d=" M89.523666,130.545944   C90.493156,131.714447 91.082924,132.855591 91.288170,133.252716   C87.966621,134.432358 85.301292,134.771500 83.553436,136.218704   C82.435760,137.144135 81.882812,140.088440 82.528549,141.427505   C83.163124,142.743439 85.584122,143.305557 87.315903,143.939911   C88.198486,144.263214 89.378403,143.774780 90.261055,144.098007   C91.202034,144.442566 91.950790,145.312012 92.783463,145.952316   C91.979576,146.593674 91.256157,147.633438 90.359329,147.814575   C81.662880,149.570923 76.182144,144.911453 77.356544,136.167877   C77.615723,134.238281 80.646194,132.246399 82.834549,131.147415   C84.598160,130.261719 87.016235,130.679260 89.523666,130.545944  z"
   id="path16" />
<path
   fill="#39C52A"
   opacity="1.000000"
   stroke="none"
   d=" M85.936768,70.423630   C86.981522,72.210587 88.057709,74.376511 89.016571,76.817093   C87.192215,77.599808 85.509109,78.219444 83.772957,78.591774   C80.546295,79.283752 78.275749,80.586617 78.883118,84.488792   C78.979767,85.109810 78.263161,85.857399 77.840973,86.711472   C73.807587,79.484077 76.403618,76.516815 82.247467,73.839020   C83.655785,73.193680 84.736717,71.833847 85.936768,70.423630  z"
   id="path18" />
<path
   fill="#4FCA41"
   opacity="1.000000"
   stroke="none"
   d=" M142.916107,68.185234   C141.983475,74.095810 141.006470,79.568283 140.029449,85.040764   C139.685715,84.979546 139.341995,84.918320 138.998260,84.857101   C138.998260,74.625122 138.998260,64.393135 138.998260,54.161156   C139.263000,54.095261 139.527725,54.029362 139.792465,53.963463   C140.818878,58.558022 141.845291,63.152580 142.916107,68.185234  z"
   id="path20" />
<path
   fill="#4FCA41"
   opacity="1.000000"
   stroke="none"
   d=" M63.569454,82.542953   C63.307537,83.350479 63.079533,83.786705 62.863708,84.199638   C58.091999,75.095276 58.200390,62.458015 63.302418,54.503613   C61.971512,63.766815 60.594070,73.031334 63.569454,82.542953  z"
   id="path22" />
<path
   fill="#4FCA41"
   opacity="1.000000"
   stroke="none"
   d=" M92.777054,28.644936   C100.883591,27.899508 108.670815,26.862375 116.468399,31.003792   C105.610497,31.003792 95.377495,31.003792 85.144501,31.003792   C85.059296,30.781488 84.974091,30.559185 84.888885,30.336882   C87.391060,29.852882 89.893227,29.368883 92.777054,28.644936  z"
   id="path24" />
<path
   fill="#4FCA41"
   opacity="1.000000"
   stroke="none"
   d=" M107.215233,108.016190   C110.484184,107.446671 113.358490,106.870331 116.232803,106.293991   C116.316803,106.739731 116.400803,107.185471 116.484802,107.631210   C105.949059,111.976303 95.506454,111.303627 85.121414,107.529945   C85.207542,106.974602 85.293678,106.419266 85.379814,105.863930   C87.558151,106.552261 89.698837,107.425133 91.924942,107.879356   C94.372932,108.378860 96.898323,108.702049 99.392197,108.716316   C101.866898,108.730484 104.344353,108.264679 107.215233,108.016190  z"
   id="path26" />
<path
   fill="#35C426"
   opacity="1.000000"
   stroke="none"
   d=" M114.148003,72.745300   C113.955269,73.007881 113.743118,73.086983 113.530960,73.166092   C113.644348,72.908585 113.757729,72.651077 113.982162,72.294037   C114.093216,72.194489 114.128578,72.561813 114.148003,72.745300  z"
   id="path28" />
<path
   fill="#35C426"
   opacity="1.000000"
   stroke="none"
   d=" M117.205994,88.294846   C117.623016,88.259460 118.089104,88.524956 118.762955,88.961342   C118.398819,88.953392 117.826935,88.774559 117.205994,88.294846  z"
   id="path30" />
<path
   fill="#35C426"
   opacity="1.000000"
   stroke="none"
   d=" M110.907364,78.410263   C111.161934,78.594070 111.441048,79.083244 111.798004,79.844093   C111.561203,79.649055 111.246567,79.182335 110.907364,78.410263  z"
   id="path32" />
<path
   fill="#000000"
   opacity="1.000000"
   stroke="none"
   d=" M98.736954,83.518585   C96.115273,86.354813 94.057121,91.159531 90.002365,85.049179   C92.928123,80.670769 96.707863,76.341179 93.261345,69.163254   C97.100227,71.226830 99.467911,72.499557 101.838631,73.773926   C100.833450,76.992767 99.869057,80.080994 98.736954,83.518585  z"
   id="path34" />
<path
   fill="#4FCA41"
   opacity="1.000000"
   stroke="none"
   d=" M123.195099,63.921547   C123.227676,64.007812 122.870972,64.282990 122.870972,64.282990   C122.870972,64.282990 122.825348,63.937504 122.907715,63.853699   C122.990082,63.769897 123.162529,63.835278 123.195099,63.921547  z"
   id="path36" />
<path
   fill="#4FCA41"
   opacity="1.000000"
   stroke="none"
   d=" M121.475143,62.543396   C121.456650,62.506535 121.493637,62.580261 121.475143,62.543396  z"
   id="path38" />
<path
   fill="#000000"
   opacity="1.000000"
   stroke="none"
   d=" M109.994339,130.298782   C111.837677,127.917793 111.873955,127.906944 112.486954,129.956451   C113.220940,132.410477 113.884972,134.885437 114.666306,137.660309   C112.646721,137.660309 110.605331,137.660309 108.136803,137.660309   C108.772263,135.246597 109.373749,132.961929 109.994339,130.298782  z"
   id="path40" />
<path
   fill="#020202"
   opacity="1.000000"
   stroke="none"
   d=" M129.281921,143.330963   C129.060944,139.297409 127.645248,134.890182 133.411591,134.248856   C134.410782,134.137741 136.446793,135.172195 136.455460,135.702850   C136.500580,138.461533 136.433487,141.375595 135.483887,143.887100   C135.251755,144.501038 131.556488,143.805588 129.281921,143.330963  z"
   id="path42" />
<path
   style="fill:#ffffff;stroke-width:0.300752"
   d="M 1.2030075,101.05263 V 1.2030075 H 101.05263 200.90226 V 101.05263 200.90226 H 101.05263 1.2030075 Z M 128.21219,155.15989 c 0.6888,-0.31383 0.73093,-0.50157 0.92427,-4.11814 0.11142,-2.08412 0.24478,-3.83151 0.29636,-3.88309 0.0516,-0.0516 1.49585,0.19217 3.20948,0.54167 4.98061,1.0158 6.97002,0.53279 8.25996,-2.00545 0.51254,-1.00856 0.59956,-1.76182 0.58837,-5.09338 -0.016,-4.75845 -0.36835,-6.10914 -2.06106,-7.90069 -1.66639,-1.76369 -2.70855,-1.92971 -9.42957,-1.50213 l -5.18797,0.33005 v 10.21 10.21 l 1.2782,1.76123 c 0.703,0.96867 1.30566,1.76517 1.33923,1.76999 0.0336,0.005 0.3858,-0.1392 0.78273,-0.32006 z m -38.163471,-7.17646 c 0.647098,-0.15009 1.586147,-0.6825 2.086782,-1.18313 l 0.910237,-0.91024 -0.858727,-0.68939 c -1.466232,-1.1771 -2.064446,-1.4196 -3.529113,-1.43061 -1.726045,-0.013 -4.610051,-1.04826 -5.556373,-1.99458 -0.869266,-0.86926 -0.910933,-2.4749 -0.110006,-4.23904 0.681242,-1.50052 1.667122,-2.06871 5.667946,-3.26657 3.049678,-0.91309 3.039127,-0.89666 1.77517,-2.76406 l -0.660199,-0.97538 -3.023657,-0.002 c -2.686108,-0.002 -3.205973,0.0888 -4.656827,0.81179 -0.898247,0.44762 -2.331639,1.49649 -3.185317,2.33083 -1.360304,1.32949 -1.578124,1.71213 -1.76237,3.09593 -0.518367,3.89327 0.793585,7.65382 3.350631,9.60417 2.186875,1.66801 6.310695,2.36411 9.551823,1.61235 z m 67.680801,-0.62553 c 1.56721,-0.50202 2.91959,-1.0262 3.00528,-1.16485 0.22262,-0.36021 -3.77416,-1.75524 -6.54032,-2.28282 -3.40577,-0.64956 -3.81854,-0.96111 -3.81854,-2.8822 v -0.87765 h 3.44384 c 3.92287,0 6.11693,-0.37896 7.22065,-1.24714 1.59245,-1.25263 0.71246,-5.2788 -1.56389,-7.15516 -2.02721,-1.671 -4.27922,-1.81868 -9.50133,-0.6231 -2.89033,0.66173 -3.92649,1.53276 -4.60668,3.87252 -0.64614,2.22267 -0.42975,6.58096 0.42164,8.4921 2.0588,4.62147 5.80203,5.83426 11.93935,3.8683 z m -49.92272,-4.2105 c 1.08879,-0.98671 2.10021,-1.79402 2.24759,-1.79402 0.14738,0 1.09619,0.25778 2.10848,0.57284 2.2346,0.69549 3.73573,1.78958 4.41271,3.2162 0.76086,1.6034 1.62202,2.04022 3.61633,1.83439 0.92176,-0.0951 1.72615,-0.22319 1.78753,-0.28457 0.0614,-0.0614 -0.77277,-3.07382 -1.85367,-6.69432 -1.08089,-3.62049 -2.37098,-8.07486 -2.86686,-9.8986 -1.44085,-5.29913 -2.37668,-6.27912 -6.0336,-6.31837 -2.3015,-0.0247 -3.29913,0.51009 -4.2039,2.25353 -0.52915,1.01965 -6.26953,19.76518 -6.26953,20.4735 0,0.19907 0.21648,0.60116 0.48106,0.89352 0.4551,0.50288 0.5921,0.45082 2.53766,-0.96426 1.13112,-0.82271 2.94742,-2.30314 4.0362,-3.28984 z m -54.712445,4.04758 c 1.659919,-0.25892 3.291377,-1.60227 3.012607,-2.48059 -0.202764,-0.63886 -0.330917,-0.65424 -5.450538,-0.65424 h -5.24289 v -2.6865 c 0,-3.13552 -0.165035,-2.99097 3.763504,-3.29644 3.263873,-0.25379 4.291079,-0.97331 5.090842,-3.56593 l 0.208746,-0.67669 h -4.524614 -4.52461 l -0.519477,-0.79282 -0.519474,-0.79282 2.164791,-2.06432 2.164788,-2.06433 h 2.573215 c 3.553744,0 4.586208,-0.60853 5.485432,-3.23308 l 0.33489,-0.97745 -6.82646,6.1e-4 c -7.451871,6e-4 -8.228758,0.15063 -9.456626,1.82732 -0.940219,1.2839 -1.036716,2.50029 -0.845137,10.65341 0.163258,6.94781 0.249868,7.95367 0.776891,9.02256 1.002703,2.03366 1.959485,2.32942 6.908938,2.1357 2.315789,-0.0906 4.757122,-0.25005 5.425182,-0.35425 z m 18.322162,-0.2417 c 1.092298,-0.71625 3.470701,-2.89975 3.470701,-3.18629 0,-0.48682 -4.020589,-4.88442 -5.147471,-5.63016 -0.66747,-0.44171 -2.309795,-1.09319 -3.649609,-1.44773 l -2.436024,-0.64462 1.330839,-0.63822 c 0.731958,-0.35101 3.0564,-1.068 5.165423,-1.5933 3.978385,-0.99091 4.181465,-1.13049 3.652033,-2.51017 -0.200607,-0.52277 -2.979862,-0.58 -10.168511,-0.20938 l -3.584151,0.18479 -0.527879,1.50375 c -1.579952,4.50077 -0.156924,6.22225 7.094673,8.58263 1.654136,0.53842 3.110728,1.06915 3.236873,1.1794 0.126144,0.11024 -0.821225,0.63205 -2.105264,1.15957 -2.190511,0.89994 -3.619852,1.24481 -7.071458,1.70624 -1.398605,0.18697 -1.428572,0.21326 -1.428572,1.25335 v 1.06238 l 5.652981,-0.10336 c 4.917097,-0.0899 5.765248,-0.17698 6.515416,-0.66888 z m 36.575593,-36.75465 c 1.55923,-0.26293 4.12067,-0.90579 5.6921,-1.42857 2.63382,-0.87622 2.85076,-1.00783 2.77547,-1.68381 -0.0449,-0.40332 -0.13163,-0.78326 -0.19269,-0.84433 -0.0611,-0.0611 -1.86742,0.23145 -4.01413,0.65002 -11.21671,2.18709 -17.437359,2.08427 -24.555582,-0.40585 -2.421278,-0.84702 -2.642165,-0.81839 -2.528364,0.3277 0.105964,1.06715 0.513164,1.26741 4.906274,2.41287 5.755558,1.5007 12.584602,1.87117 17.916922,0.97197 z M 93.094707,89.761044 c 3.759888,-0.974361 9.452133,-5.25683 12.104753,-9.106827 0.87475,-1.269594 1.84194,-2.561264 2.14933,-2.870379 0.54568,-0.548746 0.59338,-0.542996 2.01858,0.243374 1.29173,0.712725 1.82308,1.370015 4.61759,5.712042 3.8704,6.013711 4.10927,6.187642 8.49624,6.186394 1.61278,-6.01e-4 2.93233,-0.06391 2.93233,-0.141007 0,-0.588981 -1.11039,-2.265844 -1.50041,-2.265844 -1.07158,0 -3.69293,-1.620057 -4.56711,-2.822583 -1.17323,-1.613904 -1.49243,-2.410996 -2.48276,-6.199973 -0.4662,-1.783643 -1.20664,-3.758319 -1.70146,-4.537609 -0.48184,-0.758843 -0.87608,-1.451534 -0.87608,-1.539315 0,-0.235314 2.87347,-0.978306 7.96993,-2.060788 2.4812,-0.527001 4.57036,-1.012045 4.64257,-1.077873 0.0722,-0.06583 -0.68575,-1.301206 -1.68436,-2.745285 -1.39876,-2.022736 -1.85131,-2.947302 -1.97095,-4.026697 -0.20537,-1.852842 -1.13577,-3.09523 -2.79147,-3.727549 -1.82354,-0.696418 -3.71712,-0.412057 -7.21888,1.084054 -3.07946,1.315693 -4.39625,1.452965 -7.06714,0.73674 -2.43218,-0.652217 -6.71264,-0.868136 -9.473681,-0.477877 -1.323308,0.187044 -4.191043,0.766541 -6.372746,1.287778 -3.658177,0.873982 -4.094697,0.919058 -5.611882,0.579527 -2.150226,-0.4812 -3.046027,-1.339852 -3.472518,-3.328508 -0.452649,-2.110628 -0.03177,-3.666983 1.256022,-4.644631 2.730285,-2.072734 6.378054,-2.403462 10.742478,-0.973976 3.432409,1.124219 8.628447,1.423221 11.289487,0.649636 2.10632,-0.612325 3.8968,-1.609372 5.04815,-2.811125 l 0.83029,-0.866638 -1.30078,-0.496773 c -1.72092,-0.657224 -2.13411,-0.630072 -3.49616,0.229751 -1.556,0.982258 -4.02387,1.679488 -5.944605,1.679488 -1.902524,0 -3.605068,-0.337266 -8.38127,-1.660297 -4.839055,-1.340442 -6.127786,-1.48877 -8.051723,-0.92674 -4.569798,1.334959 -7.154255,7.679573 -4.851615,11.910283 1.006376,1.849043 2.336361,3.073672 4.479751,4.12489 l 1.587323,0.778496 0.658204,2.401729 0.658202,2.40173 -1.30022,1.331167 c -0.715122,0.732141 -2.184794,1.79778 -3.26594,2.368087 -2.613446,1.378601 -4.082962,2.629711 -4.846336,4.126051 -0.862978,1.69157 -0.650361,4.295065 0.562117,6.883203 l 0.89034,1.900499 0.624682,-1.015837 c 0.433089,-0.704274 0.620304,-1.503282 0.610403,-2.605119 -0.0182,-2.023772 0.740458,-3.14726 2.687447,-3.979901 1.693979,-0.724442 6.311723,-1.760075 6.593137,-1.478659 0.107507,0.107504 -0.25692,1.247008 -0.809835,2.532226 -2.06904,4.809368 -1.048746,8.549723 2.571056,9.425356 0.496241,0.120042 0.975326,0.232112 1.064632,0.249044 0.08931,0.01693 0.969007,-0.17825 1.954887,-0.433735 z M 140.29674,84.43609 c 0.0868,-0.37218 0.75588,-4.207272 1.48682,-8.52243 l 1.329,-7.845735 -1.56331,-7.038716 c -1.2583,-5.665447 -1.66462,-7.058226 -2.08259,-7.138722 -0.48652,-0.09369 -0.51929,0.888373 -0.51929,15.561146 0,15.410439 0.01,15.661149 0.59577,15.661149 0.37058,0 0.65543,-0.255787 0.7536,-0.676692 z M 63.456502,83.313447 c 0.313651,-0.757221 0.274093,-1.261282 -0.25372,-3.233083 -1.612881,-6.025384 -1.569555,-14.272764 0.128992,-24.554517 0.53244,-3.222993 -2.179179,2.072655 -3.245557,6.338409 -0.954837,3.819542 -0.954635,11.400078 3e-4,15.22055 0.708154,2.832851 2.372175,7.12572 2.762106,7.12572 0.129909,0 0.40341,-0.403687 0.60778,-0.897079 z m 53.235228,-52.18056 c 0,-0.07992 -0.66867,-0.484148 -1.48592,-0.898283 -2.25515,-1.142772 -5.79342,-2.004555 -9.16468,-2.232157 -3.77836,-0.255085 -11.363732,0.143639 -14.161431,0.744394 -1.157894,0.248637 -3.18797,0.670225 -4.511278,0.936862 -1.323308,0.266637 -2.456568,0.525632 -2.518358,0.575545 -0.06179,0.04991 -0.0322,0.299594 0.06575,0.554849 0.157386,0.410147 2.014718,0.464098 15.977007,0.464098 8.6894,0 15.79891,-0.06539 15.79891,-0.145308 z"
   id="path276" /><path
   style="fill:#ffffff;stroke-width:0.300752"
   d="m 91.516696,86.483059 -1.33649,-1.336489 1.251672,-1.843169 c 3.007058,-4.428089 3.967581,-8.374697 2.886674,-11.860796 -0.254049,-0.819349 -0.422266,-1.529367 -0.373815,-1.577818 0.06278,-0.06278 6.978013,3.52535 7.623623,3.95569 0.0355,0.02368 -0.63084,2.234645 -1.48083,4.913247 l -1.545432,4.870187 -1.978242,2.107819 c -2.467701,2.629338 -3.093512,2.724977 -5.04716,0.771329 z"
   id="path347" /><path
   style="fill:#ffffff;stroke-width:0.300752"
   d="m 109.28849,133.89871 c 0.91498,-3.46133 2.01094,-5.59758 2.5666,-5.00287 0.258,0.27614 2.43062,7.63551 2.43062,8.23332 0,0.19752 -1.10336,0.31445 -2.96714,0.31445 h -2.96715 z"
   id="path349" /><path
   style="fill:#ffffff;stroke-width:0.300752"
   d="m 131.65374,143.62503 c -1.11676,-0.20222 -2.10141,-0.43861 -2.1881,-0.52531 -0.0867,-0.0867 -0.18802,-1.43361 -0.22517,-2.99315 -0.0543,-2.28186 0.0361,-2.99402 0.46297,-3.64731 1.17224,-1.79378 3.53615,-2.47645 5.44265,-1.57176 l 1.09451,0.51938 v 2.35695 c 0,2.47519 -0.46218,5.28394 -0.97421,5.92038 -0.35605,0.44257 -0.89008,0.43382 -3.61265,-0.0592 z"
   id="path351" /></svg>
